<svg xmlns="http://www.w3.org/2000/svg"
	xmlns:xlink="http://www.w3.org/1999/xlink"
	version="1.1"
	width="256"
	height="256"
	viewBox="0 0 256 256"
	xml:space="preserve">
	<g style="stroke: none; stroke-width: 0; stroke-dasharray: none; stroke-linecap: butt; stroke-linejoin: miter; stroke-miterlimit: 10; fill: none; fill-rule: nonzero; opacity: 1;" 	transform="translate(1.4065934065934016 1.4065934065934016) scale(2.81 2.81)" >
		<path d="M 33.75 89.999 c -0.416 0 -0.838 -0.079 -1.245 -0.248 l -10.313 -4.272 c -0.806 -0.333 -1.434 -0.961 -1.769 -1.769 c -0.334 -0.806 -0.334 -1.694 0 -2.501 c 1.404 -3.39 0.665 -7.107 -1.93 -9.702 c -2.595 -2.595 -6.313 -3.336 -9.703 -1.931 c -1.665 0.689 -3.58 -0.103 -4.27 -1.768 L 0.25 57.495 c -0.689 -1.664 0.104 -3.579 1.768 -4.27 C 5.408 51.821 7.514 48.67 7.514 45 c 0 -3.67 -2.106 -6.822 -5.497 -8.226 c -0.807 -0.334 -1.435 -0.962 -1.769 -1.769 c -0.334 -0.807 -0.333 -1.695 0 -2.501 l 4.271 -10.313 c 0.69 -1.665 2.606 -2.458 4.27 -1.769 c 3.39 1.403 7.108 0.665 9.703 -1.93 s 3.334 -6.313 1.93 -9.703 c -0.689 -1.665 0.104 -3.58 1.769 -4.27 L 32.505 0.25 c 1.668 -0.69 3.58 0.104 4.27 1.768 C 38.179 5.408 41.331 7.514 45 7.514 c 3.669 0 6.821 -2.106 8.225 -5.497 c 0.689 -1.665 2.606 -2.459 4.27 -1.768 l 10.313 4.271 c 1.664 0.69 2.457 2.605 1.768 4.27 c -1.404 3.39 -0.664 7.108 1.931 9.703 c 2.594 2.594 6.313 3.333 9.702 1.93 c 0.807 -0.334 1.694 -0.334 2.501 0 c 0.808 0.334 1.436 0.962 1.769 1.769 l 4.272 10.313 c 0.688 1.665 -0.104 3.58 -1.769 4.27 c -3.391 1.404 -5.496 4.556 -5.496 8.226 c 0 3.67 2.105 6.821 5.496 8.226 l 0 0 c 1.664 0.689 2.457 2.604 1.769 4.269 l -4.272 10.314 c -0.691 1.665 -2.604 2.457 -4.27 1.768 c -3.391 -1.405 -7.109 -0.664 -9.702 1.931 c -2.595 2.595 -3.335 6.313 -1.931 9.702 c 0.689 1.664 -0.104 3.579 -1.768 4.27 l -10.313 4.272 c -1.668 0.692 -3.581 -0.105 -4.27 -1.769 c -1.404 -3.391 -4.556 -5.496 -8.225 -5.496 c -3.67 0 -6.822 2.105 -8.226 5.496 C 36.254 89.239 35.034 89.999 33.75 89.999 z M 12.267 66.871 c 2.807 0 5.528 1.108 7.641 3.222 c 3.177 3.178 4.083 7.73 2.363 11.882 c -0.129 0.313 -0.129 0.657 0 0.971 c 0.13 0.313 0.373 0.556 0.686 0.686 l 10.313 4.272 c 0.644 0.268 1.388 -0.042 1.656 -0.687 c 1.72 -4.151 5.58 -6.73 10.073 -6.73 c 0 0 0 0 0 0 c 4.494 0 8.353 2.579 10.073 6.73 c 0.267 0.645 1.01 0.954 1.657 0.687 l 10.313 -4.272 c 0.646 -0.268 0.953 -1.011 0.686 -1.656 c -1.72 -4.152 -0.813 -8.705 2.363 -11.883 c 3.179 -3.176 7.729 -4.083 11.883 -2.363 c 0.647 0.268 1.389 -0.041 1.656 -0.686 l 4.272 -10.313 c 0.267 -0.646 -0.041 -1.389 -0.687 -1.656 c -4.151 -1.72 -6.73 -5.579 -6.73 -10.073 s 2.579 -8.354 6.73 -10.073 c 0.646 -0.268 0.953 -1.011 0.687 -1.657 l -4.272 -10.313 c -0.13 -0.313 -0.373 -0.557 -0.686 -0.687 c -0.315 -0.129 -0.659 -0.128 -0.971 0 c -4.153 1.72 -8.705 0.814 -11.882 -2.363 c -3.178 -3.178 -4.084 -7.731 -2.364 -11.883 c 0.268 -0.646 -0.04 -1.389 -0.686 -1.656 L 56.729 2.097 c -0.648 -0.269 -1.39 0.04 -1.656 0.686 C 53.354 6.935 49.494 9.514 45 9.514 c -4.494 0 -8.354 -2.579 -10.074 -6.731 c -0.268 -0.646 -1.011 -0.952 -1.656 -0.686 L 22.958 6.369 c -0.646 0.268 -0.954 1.011 -0.687 1.656 c 1.72 4.152 0.814 8.705 -2.363 11.883 c -3.178 3.177 -7.729 4.083 -11.883 2.363 c -0.646 -0.268 -1.389 0.041 -1.656 0.687 L 2.097 33.271 c -0.13 0.313 -0.13 0.657 0 0.97 c 0.129 0.313 0.373 0.556 0.686 0.686 c 4.152 1.72 6.731 5.58 6.731 10.074 c 0 4.494 -2.58 8.353 -6.731 10.073 c -0.646 0.268 -0.954 1.011 -0.686 1.656 l 4.271 10.313 c 0.268 0.645 1.01 0.953 1.656 0.686 C 9.416 67.152 10.853 66.871 12.267 66.871 z M 45 64.629 c -10.823 0 -19.629 -8.806 -19.629 -19.629 S 34.177 25.371 45 25.371 S 64.629 34.177 64.629 45 S 55.823 64.629 45 64.629 z M 45 27.371 c -9.721 0 -17.629 7.908 -17.629 17.629 S 35.279 62.629 45 62.629 S 62.629 54.721 62.629 45 S 54.721 27.371 45 27.371 z"
		style="stroke: none; stroke-width: 1; stroke-dasharray: none; stroke-linecap: butt; stroke-linejoin: miter; stroke-miterlimit: 10; fill: rgba(255, 253, 201); fill-rule: nonzero; opacity: 1;"
		transform=" matrix(1 0 0 1 0 0) "
		stroke-linecap="round" />
	</g>
</svg>